Nepomuk-Regular.220409-1800.ufo
<glyph name="ampersand" format="2">
  <advance width="805"/>
  <unicode hex="0026"/>
  <outline>
    <contour>
      <point x="255" y="-18" type="curve" smooth="yes"/>
      <point x="131" y="-18"/>
      <point x="55" y="39"/>
      <point x="55" y="148" type="curve" smooth="yes"/>
      <point x="55" y="187"/>
      <point x="69" y="224"/>
      <point x="98" y="258" type="curve" smooth="yes"/>
      <point x="127" y="292"/>
      <point x="161" y="324"/>
      <point x="201" y="354" type="curve"/>
      <point x="231" y="378" type="line"/>
      <point x="221" y="393" type="line" smooth="yes"/>
      <point x="189" y="442"/>
      <point x="168" y="498"/>
      <point x="168" y="543" type="curve" smooth="yes"/>
      <point x="168" y="646"/>
      <point x="242" y="720"/>
      <point x="326" y="720" type="curve" smooth="yes"/>
      <point x="365" y="720"/>
      <point x="395" y="708"/>
      <point x="415" y="683" type="curve" smooth="yes"/>
      <point x="435" y="658"/>
      <point x="445" y="628"/>
      <point x="445" y="594" type="curve" smooth="yes"/>
      <point x="445" y="518"/>
      <point x="399" y="467"/>
      <point x="318" y="402" type="curve"/>
      <point x="495" y="153" type="line"/>
      <point x="499" y="158" type="line" smooth="yes"/>
      <point x="523" y="187"/>
      <point x="543" y="219"/>
      <point x="559" y="253" type="curve" smooth="yes"/>
      <point x="574" y="287"/>
      <point x="582" y="314"/>
      <point x="582" y="334" type="curve" smooth="yes"/>
      <point x="582" y="358"/>
      <point x="563" y="375"/>
      <point x="542" y="375" type="curve" smooth="yes"/>
      <point x="496" y="375" type="line"/>
      <point x="496" y="408" type="line"/>
      <point x="750" y="408" type="line"/>
      <point x="750" y="375" type="line"/>
      <point x="718" y="375" type="line" smooth="yes"/>
      <point x="681" y="375"/>
      <point x="654" y="367"/>
      <point x="630" y="316" type="curve"/>
      <point x="603" y="263"/>
      <point x="582" y="223"/>
      <point x="566" y="197" type="curve" smooth="yes"/>
      <point x="550" y="170"/>
      <point x="533" y="146"/>
      <point x="515" y="124" type="curve"/>
      <point x="563" y="57"/>
      <point x="593" y="27"/>
      <point x="626" y="27" type="curve" smooth="yes"/>
      <point x="677" y="27"/>
      <point x="704" y="59"/>
      <point x="725" y="104" type="curve"/>
      <point x="741" y="96" type="line"/>
      <point x="727" y="65"/>
      <point x="710" y="39"/>
      <point x="689" y="16" type="curve" smooth="yes"/>
      <point x="668" y="-7"/>
      <point x="639" y="-18"/>
      <point x="602" y="-18" type="curve" smooth="yes"/>
      <point x="554" y="-18"/>
      <point x="506" y="10"/>
      <point x="457" y="65" type="curve"/>
      <point x="401" y="16"/>
      <point x="330" y="-18"/>
    </contour>
    <contour>
      <point x="298" y="432" type="line"/>
      <point x="362" y="481"/>
      <point x="409" y="527"/>
      <point x="409" y="600" type="curve" smooth="yes"/>
      <point x="409" y="648"/>
      <point x="372" y="689"/>
      <point x="327" y="689" type="curve" smooth="yes"/>
      <point x="271" y="689"/>
      <point x="233" y="642"/>
      <point x="233" y="573" type="curve" smooth="yes"/>
      <point x="233" y="530"/>
      <point x="261" y="480"/>
      <point x="288" y="445" type="curve" smooth="yes"/>
    </contour>
    <contour>
      <point x="267" y="12" type="curve" smooth="yes"/>
      <point x="324" y="12"/>
      <point x="380" y="38"/>
      <point x="435" y="89" type="curve"/>
      <point x="417" y="113" type="line"/>
      <point x="252" y="349" type="line"/>
      <point x="242" y="341" type="line" smooth="yes"/>
      <point x="190" y="300"/>
      <point x="154" y="245"/>
      <point x="154" y="157" type="curve" smooth="yes"/>
      <point x="154" y="60"/>
      <point x="216" y="12"/>
    </contour>
  </outline>
</glyph>
<glyph name="period" format="2">
  <advance width="254"/>
  <unicode hex="002E"/>
  <outline>
    <contour>
      <point x="80" y="59" type="curve" smooth="yes"/>
      <point x="80" y="20"/>
      <point x="112" y="-12"/>
      <point x="151" y="-12" type="curve" smooth="yes"/>
      <point x="190" y="-12"/>
      <point x="222" y="20"/>
      <point x="222" y="59" type="curve" smooth="yes"/>
      <point x="222" y="98"/>
      <point x="190" y="130"/>
      <point x="151" y="130" type="curve" smooth="yes"/>
      <point x="112" y="130"/>
      <point x="80" y="98"/>
    </contour>
  </outline>
</glyph>
<glyph name="eight" format="2">
  <advance width="584"/>
  <unicode hex="0038"/>
  <outline>
    <contour>
      <point x="168" y="572" type="curve" smooth="yes"/>
      <point x="168" y="617"/>
      <point x="216" y="655"/>
      <point x="290" y="655" type="curve" smooth="yes"/>
      <point x="387" y="655"/>
      <point x="426" y="607"/>
      <point x="426" y="533" type="curve" smooth="yes"/>
      <point x="426" y="474"/>
      <point x="404" y="431"/>
      <point x="350" y="398" type="curve"/>
      <point x="259" y="448"/>
      <point x="168" y="492"/>
    </contour>
    <contour>
      <point x="443" y="131" type="curve" smooth="yes"/>
      <point x="443" y="74" name="hr01"/>
      <point x="395" y="25"/>
      <point x="290" y="25" type="curve" smooth="yes"/>
      <point x="164" y="25"/>
      <point x="130" y="100"/>
      <point x="130" y="166" type="curve" smooth="yes"/>
      <point x="130" y="237"/>
      <point x="166" y="285"/>
      <point x="244" y="322" type="curve"/>
      <point x="340" y="271"/>
      <point x="443" y="228"/>
    </contour>
    <contour>
      <point x="210" y="341" type="curve"/>
      <point x="122" y="302"/>
      <point x="50" y="249"/>
      <point x="50" y="161" type="curve" smooth="yes"/>
      <point x="50" y="73"/>
      <point x="148" y="-12"/>
      <point x="290" y="-12" type="curve" smooth="yes"/>
      <point x="422" y="-12"/>
      <point x="534" y="80"/>
      <point x="534" y="183" type="curve" smooth="yes"/>
      <point x="534" y="277"/>
      <point x="462" y="333"/>
      <point x="383" y="380" type="curve"/>
      <point x="451" y="415"/>
      <point x="502" y="463"/>
      <point x="502" y="533" type="curve" smooth="yes"/>
      <point x="502" y="626" name="hr02"/>
      <point x="408" y="692"/>
      <point x="290" y="692" type="curve" smooth="yes"/>
      <point x="176" y="692"/>
      <point x="79" y="606"/>
      <point x="79" y="518" type="curve" smooth="yes"/>
      <point x="79" y="432"/>
      <point x="139" y="382"/>
    </contour>
  </outline>
</glyph>
<glyph name="less" format="2">
  <advance width="963"/>
  <unicode hex="003C"/>
  <outline>
    <contour>
      <point x="766" y="-53" type="line"/>
      <point x="185" y="260" type="line"/>
      <point x="185" y="281" type="line"/>
      <point x="766" y="593" type="line"/>
      <point x="782" y="566" type="line"/>
      <point x="233" y="270" type="line"/>
      <point x="782" y="-25" type="line"/>
    </contour>
  </outline>
</glyph>
<glyph name="B" format="2">
  <advance width="642"/>
  <unicode hex="0042"/>
  <outline>
    <contour>
      <point x="443" y="362" type="curve"/>
      <point x="443" y="375" type="line"/>
      <point x="518" y="397"/>
      <point x="551" y="451"/>
      <point x="551" y="514" type="curve" smooth="yes"/>
      <point x="551" y="619"/>
      <point x="471" y="680"/>
      <point x="319" y="680" type="curve" smooth="yes"/>
      <point x="48" y="680" type="line"/>
      <point x="48" y="645" type="line"/>
      <point x="88" y="645" type="line" smooth="yes"/>
      <point x="133" y="645"/>
      <point x="138" y="640"/>
      <point x="138" y="595" type="curve" smooth="yes"/>
      <point x="138" y="85" type="line" smooth="yes"/>
      <point x="138" y="40"/>
      <point x="133" y="35"/>
      <point x="88" y="35" type="curve" smooth="yes"/>
      <point x="48" y="35" type="line"/>
      <point x="48" y="0" type="line"/>
      <point x="329" y="0" type="line" smooth="yes"/>
      <point x="491" y="0"/>
      <point x="595" y="65" name="hr01"/>
      <point x="595" y="190" type="curve" smooth="yes"/>
      <point x="595" y="276"/>
      <point x="535" y="342"/>
    </contour>
    <contour>
      <point x="309" y="384" type="curve" smooth="yes"/>
      <point x="233" y="384" type="line"/>
      <point x="233" y="604" type="line" smooth="yes"/>
      <point x="233" y="636"/>
      <point x="281" y="644"/>
      <point x="302" y="644" type="curve" smooth="yes"/>
      <point x="309" y="644" type="line" smooth="yes"/>
      <point x="389" y="644"/>
      <point x="445" y="609"/>
      <point x="445" y="514" type="curve" smooth="yes"/>
      <point x="445" y="419"/>
      <point x="389" y="384"/>
    </contour>
    <contour>
      <point x="307" y="36" type="line" smooth="yes"/>
      <point x="286" y="36"/>
      <point x="233" y="44"/>
      <point x="233" y="76" type="curve" smooth="yes"/>
      <point x="233" y="347" type="line"/>
      <point x="319" y="347" type="line" smooth="yes"/>
      <point x="419" y="347"/>
      <point x="485" y="300"/>
      <point x="485" y="190" type="curve" smooth="yes"/>
      <point x="485" y="80" name="hr03"/>
      <point x="419" y="36"/>
      <point x="319" y="36" type="curve" smooth="yes"/>
    </contour>
  </outline>
</glyph>
<glyph name="underscore" format="2">
  <advance width="502"/>
  <unicode hex="005F"/>
  <outline>
    <contour>
      <point x="1" y="-110" type="line"/>
      <point x="1" y="-160" type="line"/>
      <point x="501" y="-160" type="line"/>
      <point x="501" y="-110" type="line"/>
    </contour>
  </outline>
</glyph>
<glyph name="k" format="2">
  <advance width="536"/>
  <unicode hex="006B"/>
  <outline>
    <contour>
      <point x="182" y="680" type="line"/>
      <point x="12" y="680" type="line"/>
      <point x="12" y="645" type="line"/>
      <point x="42" y="645" type="line" smooth="yes"/>
      <point x="87" y="645"/>
      <point x="92" y="640"/>
      <point x="92" y="595" type="curve" smooth="yes"/>
      <point x="92" y="85" type="line" smooth="yes"/>
      <point x="92" y="40"/>
      <point x="87" y="35"/>
      <point x="42" y="35" type="curve" smooth="yes"/>
      <point x="22" y="35" type="line"/>
      <point x="22" y="0" type="line"/>
      <point x="238" y="0" type="line"/>
      <point x="238" y="35" type="line"/>
      <point x="228" y="35" type="line" smooth="yes"/>
      <point x="183" y="35"/>
      <point x="178" y="40"/>
      <point x="178" y="85" type="curve" smooth="yes"/>
      <point x="178" y="138" type="line"/>
      <point x="260" y="230" type="line"/>
      <point x="346" y="85" type="line" smooth="yes"/>
      <point x="370" y="45"/>
      <point x="352" y="35"/>
      <point x="322" y="35" type="curve" smooth="yes"/>
      <point x="298" y="35" type="line"/>
      <point x="298" y="0" type="line"/>
      <point x="384" y="0" type="line"/>
      <point x="494" y="0" type="line"/>
      <point x="526" y="0" type="line"/>
      <point x="526" y="35" type="line"/>
      <point x="510" y="35" type="line" smooth="yes"/>
      <point x="474" y="35"/>
      <point x="472" y="40"/>
      <point x="450" y="77" type="curve" smooth="yes"/>
      <point x="320" y="297" type="line"/>
      <point x="386" y="372" type="line" smooth="yes"/>
      <point x="418" y="408"/>
      <point x="431" y="415"/>
      <point x="472" y="415" type="curve" smooth="yes"/>
      <point x="498" y="415" type="line"/>
      <point x="498" y="450" type="line"/>
      <point x="286" y="450" type="line"/>
      <point x="286" y="415" type="line"/>
      <point x="314" y="415" type="line" smooth="yes"/>
      <point x="361" y="415"/>
      <point x="365" y="402"/>
      <point x="332" y="365" type="curve" smooth="yes"/>
      <point x="182" y="198" type="line" name="hr01"/>
    </contour>
  </outline>
</glyph>
<glyph name="m" format="2">
  <advance width="822"/>
  <unicode hex="006D"/>
  <outline>
    <contour>
      <point x="464" y="349" type="curve"/>
      <point x="455" y="349" type="line"/>
      <point x="442" y="416"/>
      <point x="401" y="462"/>
      <point x="329" y="462" type="curve" smooth="yes"/>
      <point x="260" y="462"/>
      <point x="216" y="417"/>
      <point x="191" y="360" type="curve"/>
      <point x="182" y="360" type="line"/>
      <point x="182" y="450" type="line" name="hr01"/>
      <point x="22" y="450" type="line"/>
      <point x="22" y="415" type="line"/>
      <point x="52" y="415" type="line" smooth="yes"/>
      <point x="97" y="415"/>
      <point x="102" y="410"/>
      <point x="102" y="365" type="curve" smooth="yes"/>
      <point x="102" y="85" type="line" smooth="yes"/>
      <point x="102" y="45"/>
      <point x="92" y="35"/>
      <point x="52" y="35" type="curve" smooth="yes"/>
      <point x="32" y="35" type="line"/>
      <point x="32" y="0" type="line"/>
      <point x="247" y="0" type="line"/>
      <point x="247" y="35" type="line"/>
      <point x="237" y="35" type="line" smooth="yes"/>
      <point x="192" y="35"/>
      <point x="187" y="40" name="hr02"/>
      <point x="187" y="85" type="curve" smooth="yes"/>
      <point x="187" y="236" type="line" smooth="yes"/>
      <point x="187" y="296"/>
      <point x="222" y="418"/>
      <point x="300" y="418" type="curve" smooth="yes"/>
      <point x="348" y="418"/>
      <point x="373" y="382"/>
      <point x="373" y="275" type="curve" smooth="yes"/>
      <point x="373" y="85" type="line" smooth="yes"/>
      <point x="373" y="40"/>
      <point x="368" y="35"/>
      <point x="323" y="35" type="curve" smooth="yes"/>
      <point x="313" y="35" type="line"/>
      <point x="313" y="0" type="line"/>
      <point x="523" y="0" type="line"/>
      <point x="523" y="35" type="line"/>
      <point x="513" y="35" type="line" smooth="yes"/>
      <point x="468" y="35"/>
      <point x="463" y="40"/>
      <point x="463" y="85" type="curve" smooth="yes"/>
      <point x="463" y="236" type="line" smooth="yes"/>
      <point x="463" y="296"/>
      <point x="498" y="418"/>
      <point x="576" y="418" type="curve" smooth="yes"/>
      <point x="624" y="418"/>
      <point x="649" y="382"/>
      <point x="649" y="275" type="curve" smooth="yes"/>
      <point x="649" y="85" type="line" smooth="yes"/>
      <point x="649" y="40"/>
      <point x="644" y="35"/>
      <point x="599" y="35" type="curve" smooth="yes"/>
      <point x="589" y="35" type="line"/>
      <point x="589" y="0" type="line"/>
      <point x="799" y="0" type="line"/>
      <point x="799" y="35" type="line"/>
      <point x="789" y="35" type="line" smooth="yes"/>
      <point x="744" y="35"/>
      <point x="739" y="40"/>
      <point x="739" y="85" type="curve" smooth="yes"/>
      <point x="739" y="279" type="line" smooth="yes"/>
      <point x="739" y="383"/>
      <point x="700" y="462"/>
      <point x="605" y="462" type="curve" smooth="yes"/>
      <point x="531" y="462"/>
      <point x="485" y="410"/>
    </contour>
  </outline>
</glyph>
<glyph name="q" format="2">
  <advance width="501"/>
  <unicode hex="0071"/>
  <outline>
    <contour>
      <point x="343" y="82" type="line" name="hr02"/>
      <point x="343" y="-145" type="line" smooth="yes"/>
      <point x="343" y="-190"/>
      <point x="338" y="-195" name="hr01"/>
      <point x="293" y="-195" type="curve" smooth="yes"/>
      <point x="243" y="-195" type="line"/>
      <point x="243" y="-230" type="line"/>
      <point x="508" y="-230" type="line"/>
      <point x="508" y="-195" type="line"/>
      <point x="478" y="-195" type="line" smooth="yes"/>
      <point x="433" y="-195"/>
      <point x="428" y="-190"/>
      <point x="428" y="-145" type="curve" smooth="yes"/>
      <point x="428" y="462" type="line"/>
      <point x="403" y="462" type="line"/>
      <point x="353" y="365" type="line"/>
      <point x="346" y="365" type="line"/>
      <point x="318" y="423"/>
      <point x="283" y="462"/>
      <point x="218" y="462" type="curve" smooth="yes"/>
      <point x="122" y="462"/>
      <point x="41" y="375"/>
      <point x="41" y="225" type="curve" smooth="yes"/>
      <point x="41" y="75"/>
      <point x="117" y="-12"/>
      <point x="210" y="-12" type="curve" smooth="yes"/>
      <point x="255" y="-12"/>
      <point x="304" y="19"/>
      <point x="335" y="82" type="curve"/>
    </contour>
    <contour>
      <point x="144" y="225" type="curve" smooth="yes"/>
      <point x="144" y="360"/>
      <point x="183" y="431"/>
      <point x="230" y="431" type="curve" smooth="yes"/>
      <point x="283" y="431"/>
      <point x="338" y="371" name="hr03"/>
      <point x="338" y="225" type="curve" smooth="yes"/>
      <point x="338" y="121"/>
      <point x="289" y="21"/>
      <point x="227" y="21" type="curve" smooth="yes"/>
      <point x="175" y="21"/>
      <point x="144" y="90"/>
    </contour>
  </outline>
</glyph>
<glyph name="r" format="2">
  <advance width="384"/>
  <unicode hex="0072"/>
  <outline>
    <contour>
      <point x="193" y="359" type="curve"/>
      <point x="182" y="359" type="line"/>
      <point x="182" y="450" type="line"/>
      <point x="22" y="450" type="line"/>
      <point x="22" y="415" type="line"/>
      <point x="52" y="415" type="line" smooth="yes"/>
      <point x="97" y="415"/>
      <point x="102" y="410" name="hr01"/>
      <point x="102" y="365" type="curve" smooth="yes"/>
      <point x="102" y="85" type="line" smooth="yes"/>
      <point x="102" y="40"/>
      <point x="97" y="35"/>
      <point x="52" y="35" type="curve" smooth="yes"/>
      <point x="22" y="35" type="line"/>
      <point x="22" y="0" type="line"/>
      <point x="287" y="0" type="line"/>
      <point x="287" y="35" type="line"/>
      <point x="237" y="35" type="line" smooth="yes"/>
      <point x="192" y="35"/>
      <point x="187" y="40" name="hr03"/>
      <point x="187" y="85" type="curve" smooth="yes"/>
      <point x="187" y="259" type="line" smooth="yes"/>
      <point x="187" y="298"/>
      <point x="206" y="342"/>
      <point x="224" y="366" type="curve" smooth="yes"/>
      <point x="240" y="387"/>
      <point x="253" y="389"/>
      <point x="267" y="366" type="curve" smooth="yes"/>
      <point x="280" y="345"/>
      <point x="300" y="332"/>
      <point x="326" y="332" type="curve" smooth="yes"/>
      <point x="360" y="332"/>
      <point x="382" y="361"/>
      <point x="382" y="394" type="curve" smooth="yes"/>
      <point x="382" y="433"/>
      <point x="347" y="462"/>
      <point x="309" y="462" type="curve" smooth="yes"/>
      <point x="262" y="462"/>
      <point x="220" y="416"/>
    </contour>
  </outline>
</glyph>
<glyph name="guillemotright" format="2">
  <advance width="547"/>
  <unicode hex="00BB"/>
  <outline>
    <contour>
      <point x="186" y="240" type="curve"/>
      <point x="151" y="180"/>
      <point x="102" y="90"/>
      <point x="80" y="42" type="curve"/>
      <point x="101" y="35" type="line"/>
      <point x="143" y="95"/>
      <point x="213" y="169"/>
      <point x="286" y="233" type="curve" smooth="yes"/>
      <point x="289" y="236"/>
      <point x="291" y="238"/>
      <point x="291" y="240" type="curve"/>
      <point x="291" y="242"/>
      <point x="289" y="244"/>
      <point x="286" y="247" type="curve" smooth="yes"/>
      <point x="213" y="311"/>
      <point x="143" y="385"/>
      <point x="101" y="445" type="curve"/>
      <point x="80" y="438" type="line"/>
      <point x="102" y="390"/>
      <point x="151" y="300"/>
    </contour>
    <contour>
      <point x="376" y="240" type="curve"/>
      <point x="341" y="180"/>
      <point x="292" y="90"/>
      <point x="270" y="42" type="curve"/>
      <point x="291" y="35" type="line"/>
      <point x="333" y="95"/>
      <point x="403" y="169"/>
      <point x="476" y="233" type="curve" smooth="yes"/>
      <point x="479" y="236"/>
      <point x="481" y="238"/>
      <point x="481" y="240" type="curve"/>
      <point x="481" y="242"/>
      <point x="479" y="244"/>
      <point x="476" y="247" type="curve" smooth="yes"/>
      <point x="403" y="311"/>
      <point x="333" y="385"/>
      <point x="291" y="445" type="curve"/>
      <point x="270" y="438" type="line"/>
      <point x="292" y="390"/>
      <point x="341" y="300"/>
    </contour>
  </outline>
</glyph>
<glyph name="Acircumflex" format="2">
  <advance width="682"/>
  <unicode hex="00C2"/>
  <outline>
    <contour>
      <point x="329" y="892" type="line"/>
      <point x="305" y="845"/>
      <point x="246" y="772"/>
      <point x="206" y="735" type="curve"/>
      <point x="214" y="713" type="line"/>
      <point x="249" y="734"/>
      <point x="313" y="779"/>
      <point x="360" y="818" type="curve"/>
      <point x="406" y="779"/>
      <point x="470" y="734"/>
      <point x="505" y="713" type="curve"/>
      <point x="513" y="735" type="line"/>
      <point x="473" y="772"/>
      <point x="414" y="845"/>
      <point x="390" y="892" type="curve"/>
    </contour>
    <contour>
      <point x="240" y="35" type="line"/>
      <point x="200" y="35" type="line" smooth="yes"/>
      <point x="147" y="35"/>
      <point x="129" y="40"/>
      <point x="152" y="101" type="curve" smooth="yes"/>
      <point x="196" y="216" type="line"/>
      <point x="444" y="216" type="line"/>
      <point x="482" y="110" type="line" smooth="yes"/>
      <point x="505" y="44"/>
      <point x="484" y="35"/>
      <point x="436" y="35" type="curve" smooth="yes"/>
      <point x="404" y="35" type="line"/>
      <point x="404" y="0" type="line"/>
      <point x="692" y="0" type="line"/>
      <point x="692" y="35" type="line"/>
      <point x="668" y="35" type="line" smooth="yes"/>
      <point x="620" y="35"/>
      <point x="611" y="37"/>
      <point x="586" y="106" type="curve" smooth="yes"/>
      <point x="376" y="692" type="line"/>
      <point x="340" y="692" type="line"/>
      <point x="108" y="96" type="line" smooth="yes"/>
      <point x="85" y="37"/>
      <point x="70" y="35"/>
      <point x="22" y="35" type="curve" smooth="yes"/>
      <point x="-10" y="35" type="line"/>
      <point x="-10" y="0" type="line"/>
      <point x="240" y="0" type="line"/>
    </contour>
    <contour>
      <point x="210" y="252" type="line"/>
      <point x="326" y="556" type="line"/>
      <point x="432" y="252" type="line"/>
    </contour>
  </outline>
</glyph>
<glyph name="Aring" format="2">
  <advance width="682"/>
  <unicode hex="00C5"/>
  <outline>
    <contour>
      <point x="287" y="793" type="curve" smooth="yes"/>
      <point x="287" y="835"/>
      <point x="319" y="864"/>
      <point x="358" y="864" type="curve" smooth="yes"/>
      <point x="400" y="864"/>
      <point x="429" y="832"/>
      <point x="429" y="793" type="curve" smooth="yes"/>
      <point x="429" y="751"/>
      <point x="397" y="722"/>
      <point x="358" y="722" type="curve" smooth="yes"/>
      <point x="316" y="722"/>
      <point x="287" y="754"/>
    </contour>
    <contour>
      <point x="250" y="793" type="curve" smooth="yes"/>
      <point x="250" y="735"/>
      <point x="296" y="685"/>
      <point x="358" y="685" type="curve" smooth="yes"/>
      <point x="416" y="685"/>
      <point x="466" y="731"/>
      <point x="466" y="793" type="curve" smooth="yes"/>
      <point x="466" y="851"/>
      <point x="420" y="901"/>
      <point x="358" y="901" type="curve" smooth="yes"/>
      <point x="300" y="901"/>
      <point x="250" y="855"/>
    </contour>
    <contour>
      <point x="240" y="35" type="line"/>
      <point x="200" y="35" type="line" smooth="yes"/>
      <point x="147" y="35"/>
      <point x="129" y="40"/>
      <point x="152" y="101" type="curve" smooth="yes"/>
      <point x="196" y="216" type="line"/>
      <point x="444" y="216" type="line"/>
      <point x="482" y="110" type="line" smooth="yes"/>
      <point x="505" y="44"/>
      <point x="484" y="35"/>
      <point x="436" y="35" type="curve" smooth="yes"/>
      <point x="404" y="35" type="line"/>
      <point x="404" y="0" type="line"/>
      <point x="692" y="0" type="line"/>
      <point x="692" y="35" type="line"/>
      <point x="668" y="35" type="line" smooth="yes"/>
      <point x="620" y="35"/>
      <point x="611" y="37"/>
      <point x="586" y="106" type="curve" smooth="yes"/>
      <point x="376" y="692" type="line"/>
      <point x="340" y="692" type="line"/>
      <point x="108" y="96" type="line" smooth="yes"/>
      <point x="85" y="37"/>
      <point x="70" y="35"/>
      <point x="22" y="35" type="curve" smooth="yes"/>
      <point x="-10" y="35" type="line"/>
      <point x="-10" y="0" type="line"/>
      <point x="240" y="0" type="line"/>
    </contour>
    <contour>
      <point x="210" y="252" type="line"/>
      <point x="326" y="556" type="line"/>
      <point x="432" y="252" type="line"/>
    </contour>
  </outline>
</glyph>
<glyph name="Egrave" format="2">
  <advance width="631"/>
  <unicode hex="00C8"/>
  <outline>
    <contour>
      <point x="351" y="906" type="curve"/>
      <point x="240" y="906" type="line"/>
      <point x="233" y="886" type="line"/>
      <point x="275" y="846"/>
      <point x="381" y="764"/>
      <point x="437" y="732" type="curve"/>
      <point x="445" y="754" type="line"/>
      <point x="411" y="794"/>
      <point x="369" y="862"/>
    </contour>
    <contour>
      <point x="38" y="680" type="line"/>
      <point x="38" y="645" type="line"/>
      <point x="78" y="645" type="line" smooth="yes"/>
      <point x="123" y="645"/>
      <point x="128" y="640"/>
      <point x="128" y="595" type="curve" smooth="yes"/>
      <point x="128" y="85" type="line" smooth="yes"/>
      <point x="128" y="40"/>
      <point x="123" y="35"/>
      <point x="78" y="35" type="curve" smooth="yes"/>
      <point x="38" y="35" type="line"/>
      <point x="38" y="0" type="line"/>
      <point x="579" y="0" type="line"/>
      <point x="584" y="269" type="line"/>
      <point x="554" y="269" type="line"/>
      <point x="532" y="148"/>
      <point x="514" y="36"/>
      <point x="348" y="36" type="curve" smooth="yes"/>
      <point x="274" y="36" type="line" smooth="yes"/>
      <point x="248" y="36"/>
      <point x="223" y="55"/>
      <point x="223" y="79" type="curve" smooth="yes"/>
      <point x="223" y="326" type="line"/>
      <point x="286" y="326" type="line" smooth="yes"/>
      <point x="342" y="326"/>
      <point x="377" y="270"/>
      <point x="385" y="180" type="curve"/>
      <point x="420" y="180" type="line"/>
      <point x="420" y="507" type="line"/>
      <point x="385" y="507" type="line"/>
      <point x="377" y="417"/>
      <point x="346" y="362"/>
      <point x="286" y="362" type="curve" smooth="yes"/>
      <point x="223" y="362" type="line"/>
      <point x="223" y="604" type="line" smooth="yes"/>
      <point x="223" y="628"/>
      <point x="258" y="644"/>
      <point x="288" y="644" type="curve" smooth="yes"/>
      <point x="351" y="644" type="line" smooth="yes"/>
      <point x="471" y="644"/>
      <point x="510" y="576"/>
      <point x="537" y="449" type="curve"/>
      <point x="567" y="449" type="line"/>
      <point x="562" y="680" type="line"/>
    </contour>
  </outline>
</glyph>
<glyph name="Ecircumflex" format="2">
  <advance width="631"/>
  <unicode hex="00CA"/>
  <outline>
    <contour>
      <point x="308" y="902" type="line"/>
      <point x="284" y="855"/>
      <point x="225" y="782"/>
      <point x="185" y="745" type="curve"/>
      <point x="193" y="723" type="line"/>
      <point x="228" y="744"/>
      <point x="292" y="789"/>
      <point x="339" y="828" type="curve"/>
      <point x="385" y="789"/>
      <point x="449" y="744"/>
      <point x="484" y="723" type="curve"/>
      <point x="492" y="745" type="line"/>
      <point x="452" y="782"/>
      <point x="393" y="855"/>
      <point x="369" y="902" type="curve"/>
    </contour>
    <contour>
      <point x="38" y="680" type="line"/>
      <point x="38" y="645" type="line"/>
      <point x="78" y="645" type="line" smooth="yes"/>
      <point x="123" y="645"/>
      <point x="128" y="640"/>
      <point x="128" y="595" type="curve" smooth="yes"/>
      <point x="128" y="85" type="line" smooth="yes"/>
      <point x="128" y="40"/>
      <point x="123" y="35"/>
      <point x="78" y="35" type="curve" smooth="yes"/>
      <point x="38" y="35" type="line"/>
      <point x="38" y="0" type="line"/>
      <point x="579" y="0" type="line"/>
      <point x="584" y="269" type="line"/>
      <point x="554" y="269" type="line"/>
      <point x="532" y="148"/>
      <point x="514" y="36"/>
      <point x="348" y="36" type="curve" smooth="yes"/>
      <point x="274" y="36" type="line" smooth="yes"/>
      <point x="248" y="36"/>
      <point x="223" y="55"/>
      <point x="223" y="79" type="curve" smooth="yes"/>
      <point x="223" y="326" type="line"/>
      <point x="286" y="326" type="line" smooth="yes"/>
      <point x="342" y="326"/>
      <point x="377" y="270"/>
      <point x="385" y="180" type="curve"/>
      <point x="420" y="180" type="line"/>
      <point x="420" y="507" type="line"/>
      <point x="385" y="507" type="line"/>
      <point x="377" y="417"/>
      <point x="346" y="362"/>
      <point x="286" y="362" type="curve" smooth="yes"/>
      <point x="223" y="362" type="line"/>
      <point x="223" y="604" type="line" smooth="yes"/>
      <point x="223" y="628"/>
      <point x="258" y="644"/>
      <point x="288" y="644" type="curve" smooth="yes"/>
      <point x="351" y="644" type="line" smooth="yes"/>
      <point x="471" y="644"/>
      <point x="510" y="576"/>
      <point x="537" y="449" type="curve"/>
      <point x="567" y="449" type="line"/>
      <point x="562" y="680" type="line"/>
    </contour>
  </outline>
</glyph>
<glyph name="Idieresis" format="2">
  <advance width="388"/>
  <unicode hex="00CF"/>
  <outline>
    <contour>
      <point x="251" y="805" type="curve" smooth="yes"/>
      <point x="251" y="776"/>
      <point x="274" y="753"/>
      <point x="303" y="753" type="curve" smooth="yes"/>
      <point x="332" y="753"/>
      <point x="355" y="776"/>
      <point x="355" y="805" type="curve" smooth="yes"/>
      <point x="355" y="834"/>
      <point x="332" y="857"/>
      <point x="303" y="857" type="curve" smooth="yes"/>
      <point x="274" y="857"/>
      <point x="251" y="834"/>
    </contour>
    <contour>
      <point x="57" y="805" type="curve" smooth="yes"/>
      <point x="57" y="776"/>
      <point x="80" y="753"/>
      <point x="109" y="753" type="curve" smooth="yes"/>
      <point x="138" y="753"/>
      <point x="161" y="776"/>
      <point x="161" y="805" type="curve" smooth="yes"/>
      <point x="161" y="834"/>
      <point x="138" y="857"/>
      <point x="109" y="857" type="curve" smooth="yes"/>
      <point x="80" y="857"/>
      <point x="57" y="834"/>
    </contour>
    <contour>
      <point x="242" y="595" type="line" smooth="yes"/>
      <point x="242" y="640"/>
      <point x="247" y="645" name="hr01"/>
      <point x="292" y="645" type="curve" smooth="yes"/>
      <point x="332" y="645" type="line"/>
      <point x="332" y="680" type="line"/>
      <point x="57" y="680" type="line"/>
      <point x="57" y="645" type="line"/>
      <point x="97" y="645" type="line" smooth="yes" name="hr02"/>
      <point x="142" y="645"/>
      <point x="147" y="640"/>
      <point x="147" y="595" type="curve" smooth="yes"/>
      <point x="147" y="85" type="line" smooth="yes" name="hr03"/>
      <point x="147" y="40"/>
      <point x="142" y="35"/>
      <point x="97" y="35" type="curve" smooth="yes"/>
      <point x="57" y="35" type="line"/>
      <point x="57" y="0" type="line"/>
      <point x="332" y="0" type="line" name="hr04"/>
      <point x="332" y="35" type="line"/>
      <point x="292" y="35" type="line" smooth="yes"/>
      <point x="247" y="35"/>
      <point x="242" y="49"/>
      <point x="242" y="85" type="curve" smooth="yes"/>
    </contour>
  </outline>
</glyph>
<glyph name="Ntilde" format="2">
  <advance width="716"/>
  <unicode hex="00D1"/>
  <outline>
    <contour>
      <point x="282" y="808" type="curve" smooth="yes"/>
      <point x="319" y="808"/>
      <point x="374" y="746"/>
      <point x="424" y="746" type="curve" smooth="yes"/>
      <point x="474" y="746"/>
      <point x="509" y="802"/>
      <point x="525" y="844" type="curve"/>
      <point x="503" y="852" type="line"/>
      <point x="491" y="827"/>
      <point x="473" y="804"/>
      <point x="447" y="804" type="curve" smooth="yes"/>
      <point x="410" y="804"/>
      <point x="355" y="866"/>
      <point x="305" y="866" type="curve" smooth="yes"/>
      <point x="255" y="866"/>
      <point x="220" y="810"/>
      <point x="204" y="768" type="curve"/>
      <point x="226" y="760" type="line"/>
      <point x="238" y="785"/>
      <point x="256" y="808"/>
    </contour>
    <contour>
      <point x="598" y="595" type="line"/>
      <point x="598" y="640"/>
      <point x="603" y="645"/>
      <point x="648" y="645" type="curve" smooth="yes"/>
      <point x="698" y="645" type="line"/>
      <point x="698" y="680" type="line"/>
      <point x="456" y="680" type="line"/>
      <point x="456" y="645" type="line"/>
      <point x="506" y="645" type="line" smooth="yes"/>
      <point x="551" y="645"/>
      <point x="558" y="640"/>
      <point x="558" y="595" type="curve" smooth="yes"/>
      <point x="558" y="178" type="line"/>
      <point x="219" y="680" type="line"/>
      <point x="36" y="680" type="line"/>
      <point x="36" y="645" type="line"/>
      <point x="61" y="645" type="line" smooth="yes"/>
      <point x="109" y="645"/>
      <point x="136" y="629"/>
      <point x="136" y="568" type="curve" smooth="yes"/>
      <point x="136" y="85" type="line" smooth="yes"/>
      <point x="136" y="40"/>
      <point x="131" y="35"/>
      <point x="86" y="35" type="curve" smooth="yes"/>
      <point x="36" y="35" type="line"/>
      <point x="36" y="0" type="line"/>
      <point x="276" y="0" type="line"/>
      <point x="276" y="35" type="line"/>
      <point x="226" y="35" type="line" smooth="yes"/>
      <point x="181" y="35"/>
      <point x="176" y="40"/>
      <point x="176" y="85" type="curve" smooth="yes"/>
      <point x="176" y="498" type="line" smooth="yes"/>
      <point x="176" y="535"/>
      <point x="189" y="555"/>
      <point x="218" y="511" type="curve" smooth="yes"/>
      <point x="571" y="-12" type="line"/>
      <point x="597" y="-12" type="line"/>
    </contour>
  </outline>
</glyph>
<glyph name="Ocircumflex" format="2">
  <advance width="640"/>
  <unicode hex="00D4"/>
  <outline>
    <contour>
      <point x="292" y="902" type="line"/>
      <point x="268" y="855"/>
      <point x="209" y="782"/>
      <point x="169" y="745" type="curve"/>
      <point x="177" y="723" type="line"/>
      <point x="212" y="744"/>
      <point x="276" y="789"/>
      <point x="323" y="828" type="curve"/>
      <point x="369" y="789"/>
      <point x="433" y="744"/>
      <point x="468" y="723" type="curve"/>
      <point x="476" y="745" type="line"/>
      <point x="436" y="782"/>
      <point x="377" y="855"/>
      <point x="353" y="902" type="curve"/>
    </contour>
    <contour>
      <point x="155" y="340" type="curve" smooth="yes"/>
      <point x="155" y="590"/>
      <point x="231" y="660"/>
      <point x="321" y="660" type="curve" smooth="yes"/>
      <point x="411" y="660"/>
      <point x="486" y="590"/>
      <point x="486" y="340" type="curve" smooth="yes"/>
      <point x="486" y="90"/>
      <point x="411" y="20"/>
      <point x="321" y="20" type="curve" smooth="yes"/>
      <point x="231" y="20"/>
      <point x="155" y="90"/>
    </contour>
    <contour>
      <point x="38" y="340" type="curve" smooth="yes"/>
      <point x="38" y="146"/>
      <point x="141" y="-12"/>
      <point x="321" y="-12" type="curve" smooth="yes"/>
      <point x="501" y="-12"/>
      <point x="603" y="146"/>
      <point x="603" y="340" type="curve" smooth="yes"/>
      <point x="603" y="535"/>
      <point x="501" y="692"/>
      <point x="321" y="692" type="curve" smooth="yes"/>
      <point x="141" y="692"/>
      <point x="38" y="535"/>
    </contour>
  </outline>
</glyph>
<glyph name="Uacute" format="2">
  <advance width="674"/>
  <unicode hex="00DA"/>
  <outline>
    <contour>
      <point x="346" y="906" type="line"/>
      <point x="328" y="862"/>
      <point x="286" y="794"/>
      <point x="252" y="754" type="curve"/>
      <point x="260" y="732" type="line"/>
      <point x="316" y="764"/>
      <point x="422" y="846"/>
      <point x="464" y="886" type="curve"/>
      <point x="457" y="906" type="line"/>
    </contour>
    <contour>
      <point x="556" y="595" type="line"/>
      <point x="556" y="640"/>
      <point x="561" y="645"/>
      <point x="606" y="645" type="curve" smooth="yes"/>
      <point x="656" y="645" type="line"/>
      <point x="656" y="680" type="line"/>
      <point x="415" y="680" type="line"/>
      <point x="415" y="645" type="line"/>
      <point x="465" y="645" type="line" smooth="yes"/>
      <point x="510" y="645"/>
      <point x="515" y="640"/>
      <point x="515" y="595" type="curve" smooth="yes"/>
      <point x="515" y="274" type="line" smooth="yes"/>
      <point x="515" y="154"/>
      <point x="487" y="31"/>
      <point x="351" y="31" type="curve" smooth="yes"/>
      <point x="235" y="31"/>
      <point x="214" y="128"/>
      <point x="214" y="288" type="curve" smooth="yes"/>
      <point x="214" y="595" type="line" smooth="yes"/>
      <point x="214" y="640"/>
      <point x="219" y="645"/>
      <point x="264" y="645" type="curve" smooth="yes"/>
      <point x="304" y="645" type="line"/>
      <point x="304" y="680" type="line"/>
      <point x="19" y="680" type="line"/>
      <point x="19" y="645" type="line"/>
      <point x="59" y="645" type="line" smooth="yes"/>
      <point x="104" y="645"/>
      <point x="109" y="640"/>
      <point x="109" y="595" type="curve" smooth="yes"/>
      <point x="109" y="269" type="line" smooth="yes"/>
      <point x="109" y="69"/>
      <point x="189" y="-12"/>
      <point x="329" y="-12" type="curve" smooth="yes"/>
      <point x="516" y="-12"/>
      <point x="555" y="118"/>
      <point x="555" y="257" type="curve"/>
    </contour>
  </outline>
</glyph>
<glyph name="Ucircumflex" format="2">
  <advance width="674"/>
  <unicode hex="00DB"/>
  <outline>
    <contour>
      <point x="327" y="902" type="line"/>
      <point x="303" y="855"/>
      <point x="244" y="782"/>
      <point x="204" y="745" type="curve"/>
      <point x="212" y="723" type="line"/>
      <point x="247" y="744"/>
      <point x="311" y="789"/>
      <point x="358" y="828" type="curve"/>
      <point x="404" y="789"/>
      <point x="468" y="744"/>
      <point x="503" y="723" type="curve"/>
      <point x="511" y="745" type="line"/>
      <point x="471" y="782"/>
      <point x="412" y="855"/>
      <point x="388" y="902" type="curve"/>
    </contour>
    <contour>
      <point x="556" y="595" type="line"/>
      <point x="556" y="640"/>
      <point x="561" y="645"/>
      <point x="606" y="645" type="curve" smooth="yes"/>
      <point x="656" y="645" type="line"/>
      <point x="656" y="680" type="line"/>
      <point x="415" y="680" type="line"/>
      <point x="415" y="645" type="line"/>
      <point x="465" y="645" type="line" smooth="yes"/>
      <point x="510" y="645"/>
      <point x="515" y="640"/>
      <point x="515" y="595" type="curve" smooth="yes"/>
      <point x="515" y="274" type="line" smooth="yes"/>
      <point x="515" y="154"/>
      <point x="487" y="31"/>
      <point x="351" y="31" type="curve" smooth="yes"/>
      <point x="235" y="31"/>
      <point x="214" y="128"/>
      <point x="214" y="288" type="curve" smooth="yes"/>
      <point x="214" y="595" type="line" smooth="yes"/>
      <point x="214" y="640"/>
      <point x="219" y="645"/>
      <point x="264" y="645" type="curve" smooth="yes"/>
      <point x="304" y="645" type="line"/>
      <point x="304" y="680" type="line"/>
      <point x="19" y="680" type="line"/>
      <point x="19" y="645" type="line"/>
      <point x="59" y="645" type="line" smooth="yes"/>
      <point x="104" y="645"/>
      <point x="109" y="640"/>
      <point x="109" y="595" type="curve" smooth="yes"/>
      <point x="109" y="269" type="line" smooth="yes"/>
      <point x="109" y="69"/>
      <point x="189" y="-12"/>
      <point x="329" y="-12" type="curve" smooth="yes"/>
      <point x="516" y="-12"/>
      <point x="555" y="118"/>
      <point x="555" y="257" type="curve"/>
    </contour>
  </outline>
</glyph>
<glyph name="Yacute" format="2">
  <advance width="640"/>
  <unicode hex="00DD"/>
  <outline>
    <contour>
      <point x="349" y="906" type="line"/>
      <point x="331" y="862"/>
      <point x="289" y="794"/>
      <point x="255" y="754" type="curve"/>
      <point x="263" y="732" type="line"/>
      <point x="319" y="764"/>
      <point x="425" y="846"/>
      <point x="467" y="886" type="curve"/>
      <point x="460" y="906" type="line"/>
    </contour>
    <contour>
      <point x="276" y="85" type="line" smooth="yes"/>
      <point x="276" y="50"/>
      <point x="261" y="35"/>
      <point x="226" y="35" type="curve" smooth="yes"/>
      <point x="186" y="35" type="line"/>
      <point x="186" y="0" type="line"/>
      <point x="462" y="0" type="line"/>
      <point x="462" y="35" type="line"/>
      <point x="422" y="35" type="line" smooth="yes"/>
      <point x="387" y="35"/>
      <point x="372" y="50"/>
      <point x="372" y="85" type="curve" smooth="yes"/>
      <point x="372" y="313" type="line"/>
      <point x="526" y="590" type="line" smooth="yes"/>
      <point x="551" y="635"/>
      <point x="558" y="645"/>
      <point x="600" y="645" type="curve" smooth="yes"/>
      <point x="650" y="645" type="line"/>
      <point x="650" y="680" type="line"/>
      <point x="424" y="680" type="line"/>
      <point x="424" y="645" type="line"/>
      <point x="458" y="645" type="line" smooth="yes"/>
      <point x="504" y="645"/>
      <point x="513" y="642"/>
      <point x="484" y="590" type="curve" smooth="yes"/>
      <point x="352" y="353" type="line"/>
      <point x="214" y="600" type="line"/>
      <point x="198" y="632"/>
      <point x="203" y="645"/>
      <point x="240" y="645" type="curve" smooth="yes"/>
      <point x="276" y="645" type="line"/>
      <point x="276" y="680" type="line"/>
      <point x="-10" y="680" type="line"/>
      <point x="-10" y="645" type="line"/>
      <point x="36" y="645" type="line" smooth="yes"/>
      <point x="77" y="645"/>
      <point x="84" y="640"/>
      <point x="106" y="600" type="curve" smooth="yes"/>
      <point x="276" y="295" type="line"/>
    </contour>
  </outline>
</glyph>
<glyph name="germandbls" format="2">
  <advance width="537"/>
  <unicode hex="00DF"/>
  <outline>
    <contour>
      <point x="362" y="358" type="curve"/>
      <point x="362" y="367" type="line"/>
      <point x="422" y="387"/>
      <point x="468" y="439"/>
      <point x="468" y="512" type="curve" smooth="yes"/>
      <point x="468" y="613"/>
      <point x="398" y="693"/>
      <point x="292" y="693" type="curve" smooth="yes"/>
      <point x="199" y="693"/>
      <point x="101" y="643"/>
      <point x="101" y="498" type="curve" smooth="yes"/>
      <point x="101" y="85" type="line" smooth="yes"/>
      <point x="101" y="40"/>
      <point x="96" y="35"/>
      <point x="51" y="35" type="curve" smooth="yes"/>
      <point x="21" y="35" type="line"/>
      <point x="21" y="0" type="line"/>
      <point x="196" y="0" type="line"/>
      <point x="196" y="552" type="line" smooth="yes"/>
      <point x="196" y="620"/>
      <point x="228" y="667"/>
      <point x="285" y="667" type="curve" smooth="yes"/>
      <point x="364" y="667"/>
      <point x="372" y="594"/>
      <point x="372" y="508" type="curve" smooth="yes"/>
      <point x="372" y="415"/>
      <point x="323" y="373"/>
      <point x="270" y="373" type="curve" smooth="yes"/>
      <point x="260" y="373" type="line"/>
      <point x="260" y="344" type="line"/>
      <point x="274" y="344" type="line" smooth="yes"/>
      <point x="364" y="344"/>
      <point x="418" y="308" name="hr01"/>
      <point x="418" y="175" type="curve" smooth="yes"/>
      <point x="418" y="65"/>
      <point x="401" y="19"/>
      <point x="364" y="19" type="curve" smooth="yes"/>
      <point x="345" y="19"/>
      <point x="343" y="42"/>
      <point x="342" y="57" type="curve" smooth="yes"/>
      <point x="341" y="78"/>
      <point x="326" y="107" name="hr02"/>
      <point x="295" y="107" type="curve" smooth="yes"/>
      <point x="263" y="107"/>
      <point x="242" y="87"/>
      <point x="242" y="54" type="curve" smooth="yes"/>
      <point x="242" y="10"/>
      <point x="294" y="-12"/>
      <point x="355" y="-12" type="curve" smooth="yes"/>
      <point x="437" y="-12"/>
      <point x="522" y="60"/>
      <point x="522" y="174" type="curve" smooth="yes"/>
      <point x="522" y="272"/>
      <point x="454" y="339"/>
    </contour>
  </outline>
</glyph>
<glyph name="aring" format="2">
  <advance width="497"/>
  <unicode hex="00E5"/>
  <outline>
    <contour>
      <point x="164" y="631" type="curve" smooth="yes"/>
      <point x="164" y="673"/>
      <point x="196" y="702"/>
      <point x="235" y="702" type="curve" smooth="yes"/>
      <point x="277" y="702"/>
      <point x="306" y="670"/>
      <point x="306" y="631" type="curve" smooth="yes"/>
      <point x="306" y="589"/>
      <point x="274" y="560"/>
      <point x="235" y="560" type="curve" smooth="yes"/>
      <point x="193" y="560"/>
      <point x="164" y="592"/>
    </contour>
    <contour>
      <point x="127" y="631" type="curve" smooth="yes"/>
      <point x="127" y="573"/>
      <point x="173" y="523"/>
      <point x="235" y="523" type="curve" smooth="yes"/>
      <point x="293" y="523"/>
      <point x="343" y="569"/>
      <point x="343" y="631" type="curve" smooth="yes"/>
      <point x="343" y="689"/>
      <point x="297" y="739"/>
      <point x="235" y="739" type="curve" smooth="yes"/>
      <point x="177" y="739"/>
      <point x="127" y="693"/>
    </contour>
    <contour>
      <point x="404" y="316" type="line" smooth="yes"/>
      <point x="404" y="400"/>
      <point x="340" y="462" name="hr01"/>
      <point x="232" y="462" type="curve" smooth="yes"/>
      <point x="109" y="462"/>
      <point x="58" y="402"/>
      <point x="58" y="357" type="curve" smooth="yes"/>
      <point x="58" y="326"/>
      <point x="74" y="296"/>
      <point x="113" y="296" type="curve" smooth="yes"/>
      <point x="139" y="296"/>
      <point x="159" y="317"/>
      <point x="159" y="343" type="curve" smooth="yes"/>
      <point x="159" y="366" name="hr02"/>
      <point x="139" y="379"/>
      <point x="139" y="394" type="curve" smooth="yes"/>
      <point x="139" y="417" name="hr03"/>
      <point x="167" y="431"/>
      <point x="224" y="431" type="curve" smooth="yes"/>
      <point x="294" y="431"/>
      <point x="314" y="377"/>
      <point x="314" y="301" type="curve" smooth="yes"/>
      <point x="314" y="290" type="line"/>
      <point x="230" y="270" type="line" smooth="yes"/>
      <point x="123" y="244"/>
      <point x="32" y="206"/>
      <point x="32" y="107" type="curve" smooth="yes"/>
      <point x="32" y="39" name="hr04"/>
      <point x="87" y="-12"/>
      <point x="163" y="-12" type="curve" smooth="yes"/>
      <point x="242" y="-12"/>
      <point x="293" y="28"/>
      <point x="320" y="66" type="curve"/>
      <point x="331" y="18"/>
      <point x="358" y="-12"/>
      <point x="412" y="-12" type="curve" smooth="yes"/>
      <point x="459" y="-12"/>
      <point x="503" y="28"/>
      <point x="513" y="92" type="curve"/>
      <point x="489" y="98" type="line"/>
      <point x="480" y="59"/>
      <point x="464" y="34"/>
      <point x="440" y="34" type="curve" smooth="yes"/>
      <point x="416" y="34" name="hr05"/>
      <point x="404" y="55"/>
      <point x="404" y="124" type="curve" smooth="yes"/>
    </contour>
    <contour>
      <point x="133" y="118" type="curve" smooth="yes"/>
      <point x="133" y="185"/>
      <point x="155" y="222"/>
      <point x="248" y="245" type="curve" smooth="yes"/>
      <point x="314" y="261" type="line"/>
      <point x="314" y="132" type="line" smooth="yes"/>
      <point x="314" y="81"/>
      <point x="246" y="24"/>
      <point x="199" y="24" type="curve" smooth="yes"/>
      <point x="151" y="24" name="hr06"/>
      <point x="133" y="56"/>
    </contour>
  </outline>
</glyph>
<glyph name="egrave" format="2">
  <advance width="449"/>
  <unicode hex="00E8"/>
  <outline>
    <contour>
      <point x="249" y="706" type="curve"/>
      <point x="138" y="706" type="line"/>
      <point x="131" y="686" type="line"/>
      <point x="173" y="646"/>
      <point x="279" y="564"/>
      <point x="335" y="532" type="curve"/>
      <point x="343" y="554" type="line"/>
      <point x="309" y="594"/>
      <point x="267" y="662"/>
    </contour>
    <contour>
      <point x="131" y="237" type="line"/>
      <point x="423" y="237" type="line"/>
      <point x="423" y="251" type="line" smooth="yes"/>
      <point x="423" y="351"/>
      <point x="365" y="462"/>
      <point x="235" y="462" type="curve" smooth="yes"/>
      <point x="105" y="462"/>
      <point x="23" y="355"/>
      <point x="23" y="225" type="curve" smooth="yes"/>
      <point x="23" y="95"/>
      <point x="104" y="-12"/>
      <point x="235" y="-12" type="curve" smooth="yes"/>
      <point x="311" y="-12"/>
      <point x="390" y="44"/>
      <point x="419" y="133" type="curve"/>
      <point x="387" y="144" type="line"/>
      <point x="361" y="64"/>
      <point x="297" y="25"/>
      <point x="247" y="25" type="curve" smooth="yes"/>
      <point x="184" y="25"/>
      <point x="131" y="75"/>
      <point x="131" y="224" type="curve" smooth="yes"/>
    </contour>
    <contour>
      <point x="319" y="312" type="curve" smooth="yes"/>
      <point x="319" y="275"/>
      <point x="304" y="267"/>
      <point x="271" y="267" type="curve" smooth="yes"/>
      <point x="131" y="267" type="line"/>
      <point x="139" y="386"/>
      <point x="178" y="436"/>
      <point x="235" y="436" type="curve" smooth="yes"/>
      <point x="286" y="436"/>
      <point x="319" y="380"/>
    </contour>
  </outline>
</glyph>
<glyph name="ecircumflex" format="2">
  <advance width="449"/>
  <unicode hex="00EA"/>
  <outline>
    <contour>
      <point x="206" y="702" type="line"/>
      <point x="182" y="655"/>
      <point x="123" y="582"/>
      <point x="83" y="545" type="curve"/>
      <point x="91" y="523" type="line"/>
      <point x="126" y="544"/>
      <point x="190" y="589"/>
      <point x="237" y="628" type="curve"/>
      <point x="283" y="589"/>
      <point x="347" y="544"/>
      <point x="382" y="523" type="curve"/>
      <point x="390" y="545" type="line"/>
      <point x="350" y="582"/>
      <point x="291" y="655"/>
      <point x="267" y="702" type="curve"/>
    </contour>
    <contour>
      <point x="131" y="237" type="line"/>
      <point x="423" y="237" type="line"/>
      <point x="423" y="251" type="line" smooth="yes"/>
      <point x="423" y="351"/>
      <point x="365" y="462"/>
      <point x="235" y="462" type="curve" smooth="yes"/>
      <point x="105" y="462"/>
      <point x="23" y="355"/>
      <point x="23" y="225" type="curve" smooth="yes"/>
      <point x="23" y="95"/>
      <point x="104" y="-12"/>
      <point x="235" y="-12" type="curve" smooth="yes"/>
      <point x="311" y="-12"/>
      <point x="390" y="44"/>
      <point x="419" y="133" type="curve"/>
      <point x="387" y="144" type="line"/>
      <point x="361" y="64"/>
      <point x="297" y="25"/>
      <point x="247" y="25" type="curve" smooth="yes"/>
      <point x="184" y="25"/>
      <point x="131" y="75"/>
      <point x="131" y="224" type="curve" smooth="yes"/>
    </contour>
    <contour>
      <point x="319" y="312" type="curve" smooth="yes"/>
      <point x="319" y="275"/>
      <point x="304" y="267"/>
      <point x="271" y="267" type="curve" smooth="yes"/>
      <point x="131" y="267" type="line"/>
      <point x="139" y="386"/>
      <point x="178" y="436"/>
      <point x="235" y="436" type="curve" smooth="yes"/>
      <point x="286" y="436"/>
      <point x="319" y="380"/>
    </contour>
  </outline>
</glyph>
<glyph name="iacute" format="2">
  <advance width="280"/>
  <unicode hex="00ED"/>
  <outline>
    <contour>
      <point x="113" y="706" type="line"/>
      <point x="95" y="662"/>
      <point x="53" y="594"/>
      <point x="19" y="554" type="curve"/>
      <point x="27" y="532" type="line"/>
      <point x="83" y="564"/>
      <point x="189" y="646"/>
      <point x="231" y="686" type="curve"/>
      <point x="224" y="706" type="line"/>
    </contour>
    <contour>
      <point x="245" y="35" type="line" smooth="yes"/>
      <point x="200" y="35"/>
      <point x="195" y="40"/>
      <point x="195" y="85" type="curve" smooth="yes"/>
      <point x="195" y="450" type="line"/>
      <point x="25" y="450" type="line"/>
      <point x="25" y="415" type="line"/>
      <point x="55" y="415" type="line" smooth="yes"/>
      <point x="100" y="415"/>
      <point x="105" y="410" name="hr01"/>
      <point x="105" y="365" type="curve" smooth="yes"/>
      <point x="105" y="85" type="line" smooth="yes"/>
      <point x="105" y="45"/>
      <point x="95" y="35"/>
      <point x="55" y="35" type="curve" smooth="yes"/>
      <point x="25" y="35" type="line"/>
      <point x="25" y="0" type="line"/>
      <point x="275" y="0" type="line"/>
      <point x="275" y="35" type="line"/>
    </contour>
  </outline>
</glyph>
<glyph name="ntilde" format="2">
  <advance width="527"/>
  <unicode hex="00F1"/>
  <outline>
    <contour>
      <point x="171" y="608" type="curve" smooth="yes"/>
      <point x="208" y="608"/>
      <point x="263" y="546"/>
      <point x="313" y="546" type="curve" smooth="yes"/>
      <point x="363" y="546"/>
      <point x="398" y="602"/>
      <point x="414" y="644" type="curve"/>
      <point x="392" y="652" type="line"/>
      <point x="380" y="627"/>
      <point x="362" y="604"/>
      <point x="336" y="604" type="curve" smooth="yes"/>
      <point x="299" y="604"/>
      <point x="244" y="666"/>
      <point x="194" y="666" type="curve" smooth="yes"/>
      <point x="144" y="666"/>
      <point x="109" y="610"/>
      <point x="93" y="568" type="curve"/>
      <point x="115" y="560" type="line"/>
      <point x="127" y="585"/>
      <point x="145" y="608"/>
    </contour>
    <contour>
      <point x="183" y="358" type="curve"/>
      <point x="173" y="358" type="line"/>
      <point x="173" y="450" type="line"/>
      <point x="13" y="450" type="line"/>
      <point x="13" y="415" type="line"/>
      <point x="43" y="415" type="line" smooth="yes"/>
      <point x="88" y="415"/>
      <point x="93" y="410"/>
      <point x="93" y="365" type="curve" smooth="yes"/>
      <point x="93" y="85" type="line" smooth="yes"/>
      <point x="93" y="45"/>
      <point x="83" y="35"/>
      <point x="43" y="35" type="curve" smooth="yes"/>
      <point x="23" y="35" type="line"/>
      <point x="23" y="0" type="line"/>
      <point x="238" y="0" type="line"/>
      <point x="238" y="35" type="line"/>
      <point x="228" y="35" type="line" smooth="yes"/>
      <point x="183" y="35"/>
      <point x="178" y="40"/>
      <point x="178" y="85" type="curve" smooth="yes" name="hr01"/>
      <point x="178" y="236" type="line" smooth="yes"/>
      <point x="178" y="296"/>
      <point x="218" y="418"/>
      <point x="296" y="418" type="curve" smooth="yes"/>
      <point x="344" y="418"/>
      <point x="374" y="382"/>
      <point x="374" y="275" type="curve" smooth="yes"/>
      <point x="374" y="85" type="line" smooth="yes"/>
      <point x="374" y="40"/>
      <point x="369" y="35"/>
      <point x="324" y="35" type="curve" smooth="yes"/>
      <point x="314" y="35" type="line"/>
      <point x="314" y="0" type="line"/>
      <point x="524" y="0" type="line"/>
      <point x="524" y="35" type="line"/>
      <point x="514" y="35" type="line" smooth="yes"/>
      <point x="469" y="35"/>
      <point x="464" y="40"/>
      <point x="464" y="85" type="curve" smooth="yes"/>
      <point x="464" y="279" type="line" smooth="yes"/>
      <point x="464" y="383"/>
      <point x="420" y="462"/>
      <point x="325" y="462" type="curve" smooth="yes"/>
      <point x="255" y="462"/>
      <point x="209" y="416"/>
    </contour>
  </outline>
</glyph>
<glyph name="ocircumflex" format="2">
  <advance width="468"/>
  <unicode hex="00F4"/>
  <outline>
    <contour>
      <point x="206" y="702" type="line"/>
      <point x="182" y="655"/>
      <point x="123" y="582"/>
      <point x="83" y="545" type="curve"/>
      <point x="91" y="523" type="line"/>
      <point x="126" y="544"/>
      <point x="190" y="589"/>
      <point x="237" y="628" type="curve"/>
      <point x="283" y="589"/>
      <point x="347" y="544"/>
      <point x="382" y="523" type="curve"/>
      <point x="390" y="545" type="line"/>
      <point x="350" y="582"/>
      <point x="291" y="655"/>
      <point x="267" y="702" type="curve"/>
    </contour>
    <contour>
      <point x="131" y="225" type="curve" smooth="yes"/>
      <point x="131" y="375"/>
      <point x="172" y="436"/>
      <point x="235" y="436" type="curve" smooth="yes"/>
      <point x="298" y="436"/>
      <point x="339" y="375"/>
      <point x="339" y="225" type="curve" smooth="yes"/>
      <point x="339" y="75"/>
      <point x="298" y="14"/>
      <point x="235" y="14" type="curve" smooth="yes"/>
      <point x="172" y="14"/>
      <point x="131" y="75"/>
    </contour>
    <contour>
      <point x="23" y="225" type="curve" smooth="yes"/>
      <point x="23" y="95"/>
      <point x="105" y="-12"/>
      <point x="235" y="-12" type="curve" smooth="yes"/>
      <point x="365" y="-12"/>
      <point x="447" y="95"/>
      <point x="447" y="225" type="curve" smooth="yes"/>
      <point x="447" y="355"/>
      <point x="365" y="462"/>
      <point x="235" y="462" type="curve" smooth="yes"/>
      <point x="105" y="462"/>
      <point x="23" y="355"/>
    </contour>
  </outline>
</glyph>
<glyph name="ugrave" format="2">
  <advance width="532"/>
  <unicode hex="00F9"/>
  <outline>
    <contour>
      <point x="277" y="706" type="curve"/>
      <point x="166" y="706" type="line"/>
      <point x="159" y="686" type="line"/>
      <point x="201" y="646"/>
      <point x="307" y="564"/>
      <point x="363" y="532" type="curve"/>
      <point x="371" y="554" type="line"/>
      <point x="337" y="594"/>
      <point x="295" y="662"/>
    </contour>
    <contour>
      <point x="356" y="96" type="curve"/>
      <point x="365" y="96" type="line"/>
      <point x="365" y="0" type="line"/>
      <point x="515" y="0" type="line"/>
      <point x="515" y="35" type="line"/>
      <point x="495" y="35" type="line" smooth="yes"/>
      <point x="450" y="35"/>
      <point x="445" y="42"/>
      <point x="445" y="87" type="curve" smooth="yes"/>
      <point x="445" y="450" type="line"/>
      <point x="279" y="450" type="line"/>
      <point x="279" y="415" type="line"/>
      <point x="309" y="415" type="line" smooth="yes"/>
      <point x="354" y="415"/>
      <point x="359" y="410"/>
      <point x="359" y="365" type="curve" smooth="yes"/>
      <point x="359" y="214" type="line" smooth="yes"/>
      <point x="359" y="154"/>
      <point x="322" y="32"/>
      <point x="237" y="32" type="curve" smooth="yes"/>
      <point x="182" y="32"/>
      <point x="163" y="68"/>
      <point x="163" y="175" type="curve" smooth="yes"/>
      <point x="163" y="450" type="line"/>
      <point x="3" y="450" type="line"/>
      <point x="3" y="415" type="line"/>
      <point x="23" y="415" type="line" smooth="yes"/>
      <point x="68" y="415"/>
      <point x="73" y="412"/>
      <point x="73" y="367" type="curve" smooth="yes"/>
      <point x="73" y="171" type="line" smooth="yes"/>
      <point x="73" y="67"/>
      <point x="103" y="-12"/>
      <point x="207" y="-12" type="curve" smooth="yes"/>
      <point x="283" y="-12"/>
      <point x="331" y="36"/>
    </contour>
  </outline>
</glyph>
<glyph name="Idotaccent" format="2">
  <advance width="388"/>
  <unicode hex="0130"/>
  <outline>
    <contour>
      <point x="148" y="811" type="curve" smooth="yes"/>
      <point x="148" y="779"/>
      <point x="174" y="753"/>
      <point x="206" y="753" type="curve" smooth="yes"/>
      <point x="238" y="753"/>
      <point x="264" y="779"/>
      <point x="264" y="811" type="curve" smooth="yes"/>
      <point x="264" y="843"/>
      <point x="238" y="869"/>
      <point x="206" y="869" type="curve" smooth="yes"/>
      <point x="174" y="869"/>
      <point x="148" y="843"/>
    </contour>
    <contour>
      <point x="242" y="595" type="line" smooth="yes"/>
      <point x="242" y="640" name="hr01"/>
      <point x="247" y="645"/>
      <point x="292" y="645" type="curve" smooth="yes"/>
      <point x="332" y="645" type="line"/>
      <point x="332" y="680" type="line"/>
      <point x="57" y="680" type="line"/>
      <point x="57" y="645" type="line"/>
      <point x="97" y="645" type="line" smooth="yes"/>
      <point x="142" y="645"/>
      <point x="147" y="640"/>
      <point x="147" y="595" type="curve" smooth="yes"/>
      <point x="147" y="85" type="line" smooth="yes"/>
      <point x="147" y="40"/>
      <point x="142" y="35"/>
      <point x="97" y="35" type="curve" smooth="yes"/>
      <point x="57" y="35" type="line"/>
      <point x="57" y="0" type="line"/>
      <point x="332" y="0" type="line"/>
      <point x="332" y="35" type="line"/>
      <point x="292" y="35" type="line" smooth="yes"/>
      <point x="247" y="35"/>
      <point x="242" y="49"/>
      <point x="242" y="85" type="curve" smooth="yes"/>
    </contour>
  </outline>
</glyph>
<glyph name="quoteleft" format="2">
  <advance width="216"/>
  <unicode hex="2018"/>
  <outline>
    <contour>
      <point x="130" y="558" type="curve" smooth="yes"/>
      <point x="100" y="558"/>
      <point x="86" y="565"/>
      <point x="86" y="593" type="curve" smooth="yes"/>
      <point x="86" y="644"/>
      <point x="143" y="692"/>
      <point x="208" y="707" type="curve"/>
      <point x="201" y="732" type="line"/>
      <point x="128" y="718"/>
      <point x="46" y="666"/>
      <point x="46" y="550" type="curve" smooth="yes"/>
      <point x="46" y="474"/>
      <point x="79" y="437"/>
      <point x="130" y="437" type="curve" smooth="yes"/>
      <point x="166" y="437"/>
      <point x="191" y="467" name="hr01"/>
      <point x="191" y="497" type="curve" smooth="yes"/>
      <point x="191" y="528"/>
      <point x="166" y="558"/>
    </contour>
  </outline>
</glyph>
<glyph name="ellipsis" format="2">
  <advance width="1000"/>
  <unicode hex="2026"/>
  <outline>
    <contour>
      <point x="749" y="59" type="curve" smooth="yes"/>
      <point x="749" y="20"/>
      <point x="781" y="-12"/>
      <point x="820" y="-12" type="curve" smooth="yes"/>
      <point x="859" y="-12"/>
      <point x="891" y="20"/>
      <point x="891" y="59" type="curve" smooth="yes"/>
      <point x="891" y="98"/>
      <point x="859" y="130"/>
      <point x="820" y="130" type="curve" smooth="yes"/>
      <point x="781" y="130"/>
      <point x="749" y="98"/>
    </contour>
    <contour>
      <point x="449" y="59" type="curve" smooth="yes"/>
      <point x="449" y="20"/>
      <point x="481" y="-12"/>
      <point x="520" y="-12" type="curve" smooth="yes"/>
      <point x="559" y="-12"/>
      <point x="591" y="20"/>
      <point x="591" y="59" type="curve" smooth="yes"/>
      <point x="591" y="98"/>
      <point x="559" y="130"/>
      <point x="520" y="130" type="curve" smooth="yes"/>
      <point x="481" y="130"/>
      <point x="449" y="98"/>
    </contour>
    <contour>
      <point x="149" y="59" type="curve" smooth="yes"/>
      <point x="149" y="20"/>
      <point x="181" y="-12"/>
      <point x="220" y="-12" type="curve" smooth="yes"/>
      <point x="259" y="-12"/>
      <point x="291" y="20"/>
      <point x="291" y="59" type="curve" smooth="yes"/>
      <point x="291" y="98"/>
      <point x="259" y="130"/>
      <point x="220" y="130" type="curve" smooth="yes"/>
      <point x="181" y="130"/>
      <point x="149" y="98"/>
    </contour>
  </outline>
</glyph>
<glyph name="C.alt" format="2">
  <advance width="598"/>
  <unicode hex="E86A"/>
  <anchor x="323" y="730" name="t.asciicircum_1"/>
  <anchor x="323" y="750" name="t.dieresis"/>
  <outline>
    <contour>
      <point x="558" y="214" type="curve"/>
      <point x="520" y="214" type="line"/>
      <point x="503" y="102"/>
      <point x="428" y="30"/>
      <point x="328" y="30" type="curve" smooth="yes"/>
      <point x="241" y="30"/>
      <point x="172" y="90"/>
      <point x="172" y="340" type="curve" smooth="yes"/>
      <point x="172" y="590"/>
      <point x="235" y="656"/>
      <point x="323" y="656" type="curve" smooth="yes"/>
      <point x="401" y="656"/>
      <point x="483" y="609"/>
      <point x="510" y="436" type="curve"/>
      <point x="550" y="436" type="line"/>
      <point x="550" y="692" type="line"/>
      <point x="515" y="692" type="line"/>
      <point x="507" y="678" type="line" smooth="yes"/>
      <point x="487" y="644"/>
      <point x="475" y="641"/>
      <point x="431" y="664" type="curve" smooth="yes"/>
      <point x="404" y="678"/>
      <point x="376" y="692"/>
      <point x="323" y="692" type="curve" smooth="yes"/>
      <point x="146" y="692"/>
      <point x="40" y="535"/>
      <point x="40" y="340" type="curve" smooth="yes"/>
      <point x="40" y="121"/>
      <point x="163" y="-12"/>
      <point x="323" y="-12" type="curve" smooth="yes"/>
      <point x="438" y="-12"/>
      <point x="540" y="62"/>
    </contour>
  </outline>
</glyph>
